<?xml version="1.0" encoding="UTF-8"?>
<!DOCTYPE svg PUBLIC "-//W3C//DTD SVG 1.1//EN" "http://www.w3.org/Graphics/SVG/1.1/DTD/svg11.dtd">
<svg xmlns="http://www.w3.org/2000/svg" version="1.1" width="2560px" height="999px" style="shape-rendering:geometricPrecision; text-rendering:geometricPrecision; image-rendering:optimizeQuality; fill-rule:evenodd; clip-rule:evenodd" xmlns:xlink="http://www.w3.org/1999/xlink">
<g><path style="opacity:0.994" fill="#00dc05" d="M 2211.5,15.5 C 2265.36,14.2169 2317.69,22.3836 2368.5,40C 2449.51,73.02 2502.68,131.52 2528,215.5C 2544.31,273.806 2549.64,333.139 2544,393.5C 2542.58,407.184 2541.08,420.851 2539.5,434.5C 2377.5,434.5 2215.5,434.5 2053.5,434.5C 2057.54,499.744 2089.87,544.577 2150.5,569C 2190.41,583.286 2231.41,587.62 2273.5,582C 2329.81,575.502 2378.81,553.335 2420.5,515.5C 2450.99,545.486 2481.32,575.653 2511.5,606C 2427.31,691.523 2324.98,730.856 2204.5,724C 2132.03,718.967 2067.36,694.301 2010.5,650C 1956.77,603.193 1922.6,544.693 1908,474.5C 1893.75,403.765 1894.08,333.098 1909,262.5C 1922.08,202.666 1949.08,150.333 1990,105.5C 2036.28,59.7724 2091.78,31.6057 2156.5,21C 2174.9,18.2831 2193.23,16.4498 2211.5,15.5 Z M 2229.5,140.5 C 2268.13,139.392 2304.47,147.892 2338.5,166C 2381.04,190.911 2406.87,227.744 2416,276.5C 2418.04,288.754 2419.2,301.087 2419.5,313.5C 2297.5,313.5 2175.5,313.5 2053.5,313.5C 2057.1,221.067 2104.1,164.9 2194.5,145C 2206.26,143.011 2217.92,141.511 2229.5,140.5 Z"/></g>
<g><path style="opacity:0.995" fill="#00dc05" d="M 330.5,15.5 C 428.79,14.0701 520.123,38.2368 604.5,88C 615.52,95.1764 626.186,102.843 636.5,111C 604.694,141.805 573.194,172.972 542,204.5C 453.116,148.269 357.616,132.769 255.5,158C 236.1,164.098 219.266,174.264 205,188.5C 187.272,212.514 188.772,235.347 209.5,257C 225.843,269.669 244.176,278.336 264.5,283C 282.936,287.62 301.602,290.954 320.5,293C 354.45,296.286 388.45,298.952 422.5,301C 472.516,305.003 519.85,318.336 564.5,341C 621.35,373.836 649.35,423.336 648.5,489.5C 646.872,585.913 602.206,653.747 514.5,693C 470,711.374 423.666,721.707 375.5,724C 255.277,731.96 147.277,699.96 51.5,628C 38.9052,618.076 26.9052,607.409 15.5,596C 49.3613,562.472 82.8613,528.639 116,494.5C 201.244,574.109 301.077,601.275 415.5,576C 442.364,569.098 465.198,555.598 484,535.5C 496.688,518.964 500.021,500.631 494,480.5C 486.351,460.192 471.851,447.692 450.5,443C 440.966,440.36 431.3,438.36 421.5,437C 383.575,432.57 345.575,428.903 307.5,426C 260.271,422.088 214.271,412.421 169.5,397C 68.8675,357.254 29.3675,284.088 51,177.5C 64.4029,137.097 88.2362,104.264 122.5,79C 173.905,43.638 230.905,23.3046 293.5,18C 305.989,17.1514 318.322,16.3181 330.5,15.5 Z"/></g>
<g><path style="opacity:0.995" fill="#00dc05" d="M 932.5,15.5 C 983.499,14.3936 1033.83,19.5602 1083.5,31C 1194.29,59.4709 1251.46,130.971 1255,245.5C 1255.5,400.833 1255.67,556.166 1255.5,711.5C 1203.83,711.5 1152.17,711.5 1100.5,711.5C 1100.67,689.497 1100.5,667.497 1100,645.5C 1062.21,687.818 1015.04,712.985 958.5,721C 906.988,728.148 855.988,725.482 805.5,713C 717.888,687.041 669.055,628.541 659,537.5C 646.967,410.03 704.134,336.53 830.5,317C 839.794,315.634 849.127,314.634 858.5,314C 939.157,312.584 1019.82,312.084 1100.5,312.5C 1100.67,286.165 1100.5,259.831 1100,233.5C 1094.44,199.232 1075.61,175.399 1043.5,162C 1020.66,153.165 996.991,148.165 972.5,147C 896.117,140.806 827.284,160.306 766,205.5C 734.5,174 703,142.5 671.5,111C 747.989,50.9981 834.989,19.1648 932.5,15.5 Z M 897.5,433.5 C 965.5,433.5 1033.5,433.5 1101.5,433.5C 1101.67,449.17 1101.5,464.837 1101,480.5C 1100.14,506.418 1092.14,529.751 1077,550.5C 1062.19,566.491 1044.03,576.657 1022.5,581C 996.227,585.86 969.727,587.693 943,586.5C 906.241,589.008 870.408,584.508 835.5,573C 797.025,556.554 781.858,527.721 790,486.5C 793.957,472.216 802.123,461.049 814.5,453C 827.991,445.614 842.324,440.614 857.5,438C 870.933,436.025 884.267,434.525 897.5,433.5 Z"/></g>
<g><path style="opacity:0.995" fill="#00dc05" d="M 1522.5,15.5 C 1604.53,13.3207 1672.7,42.654 1727,103.5C 1727.5,79.1689 1727.67,54.8356 1727.5,30.5C 1779.83,30.5 1832.17,30.5 1884.5,30.5C 1884.67,245.834 1884.5,461.167 1884,676.5C 1882.05,747.371 1860.05,811.037 1818,867.5C 1787.5,902.314 1751,929.147 1708.5,948C 1588.4,997.995 1473.4,988.328 1363.5,919C 1348.53,909.597 1334.36,899.097 1321,887.5C 1320.33,886.833 1320.33,886.167 1321,885.5C 1355.07,850.928 1389.57,816.928 1424.5,783.5C 1452.2,803.016 1482.54,817.182 1515.5,826C 1575.4,837.358 1629.73,825.024 1678.5,789C 1707.07,766.036 1723.24,736.203 1727,699.5C 1727.67,679.5 1727.67,659.5 1727,639.5C 1687.3,683.945 1637.8,711.111 1578.5,721C 1492.91,733.905 1416.91,712.905 1350.5,658C 1314.66,626.159 1291.82,586.659 1282,539.5C 1275.04,505.19 1271.37,470.523 1271,435.5C 1270.33,390.833 1270.33,346.167 1271,301.5C 1271.47,274.091 1273.14,246.758 1276,219.5C 1286.51,143.909 1324.34,86.7427 1389.5,48C 1431.37,26.6637 1475.7,15.8303 1522.5,15.5 Z M 1565.5,148.5 C 1606.36,146.792 1643.36,157.625 1676.5,181C 1710.7,208.885 1727.2,245.052 1726,289.5C 1728.54,338.475 1728.88,387.475 1727,436.5C 1728.03,501.109 1698.86,545.943 1639.5,571C 1578.54,591.91 1521.2,584.577 1467.5,549C 1439.69,528.565 1423.86,501.065 1420,466.5C 1414.42,402.869 1414.09,339.202 1419,275.5C 1419.89,241.218 1433.06,212.718 1458.5,190C 1489.37,163.902 1525.04,150.069 1565.5,148.5 Z"/></g>
</svg>
